<svg xmlns="http://www.w3.org/2000/svg" viewBox="0 0 1095.31 210" class="SearchAndReinsurance__logo"><path d="M59 206.06H0V3.94h140.7L112 57.83H59Zm-54-5h49V52.83h55l23.38-43.89H5ZM233.92 210c-31 0-56.76-9.86-76.46-29.3s-29.72-44.92-29.72-75.7c0-31 9.73-56.56 28.91-75.88S201 0 231.55 0c30 0 54.54 9.67 73 28.76s27.71 44.45 27.71 75.46c0 1.87-.07 4-.2 6.64s-.33 5.56-.59 9.31l-.16 2.33H186.43c2.29 11.59 7.32 20.63 15 26.91 8.3 6.82 19.24 10.27 32.52 10.27 10 0 18.45-2.07 25.11-6.14a28.74 28.74 0 0 0 13.1-16.92l.53-1.78h58.42l-.47 2.9c-3.51 21.59-14.25 39.24-31.92 52.46s-39.4 19.8-64.8 19.8M231.55 5c-29.14 0-53.14 9.3-71.36 27.65S132.73 75.34 132.73 105c0 29.39 9.5 53.66 28.23 72.14s43.28 27.86 73 27.86c24.3 0 45.08-6.33 61.78-18.82 15.8-11.82 25.7-27.4 29.45-46.35h-48.86a33.9 33.9 0 0 1-14.7 18c-7.46 4.56-16.78 6.87-27.72 6.87-14.47 0-26.47-3.84-35.69-11.41S183.17 134.6 181 120.36l-.44-2.88h146.03c.18-2.67.32-5 .43-6.9.13-2.47.19-4.61.19-6.37 0-29.67-8.85-53.89-26.3-72S260.14 5 231.55 5m47.87 81.21h-98.33l.72-3.07c3-12.85 8.6-22.66 16.63-29.17s18.66-9.82 31.54-9.82 23.85 3.49 32.68 10.39S277 71.17 279 83.32Zm-92-5h86c-2.09-9.51-6.76-17.15-13.9-22.73-7.93-6.19-17.89-9.33-29.6-9.33s-21.26 2.93-28.39 8.71c-6.51 5.27-11.25 13.12-14.12 23.35M455.47 50.2q-19.32 0-30.36 11.43t-11 31.54v110.39h-54V6.44h38.24l10.25 20.11a69.65 69.65 0 0 1 25.19-17.74 84.58 84.58 0 0 1 33.12-6.31q37.05 0 60.32 22.67t23.26 59.73v118.66h-54V93.17q0-19.71-11.24-31.34T455.47 50.2m264.92 87.13H774q-5.13 31.54-30.95 50.86t-63.26 19.31q-45.74 0-74.71-28.58T576.1 105q0-45.73 28.19-74.12T677.42 2.5q44.15 0 71.16 28t27 73.72q0 2.76-.2 6.51t-.58 9.27H629.32q3.15 20.5 16.36 31.34t34.1 10.84q15.76 0 26.41-6.51a31.4 31.4 0 0 0 14.19-18.33m-44.54-90.69q-18.53 0-30 9.26t-15.73 27.8h92.25Q719.6 66.37 707 56.51t-31.14-9.86m358.73 156.91H979.4L939.19 98.3l-42.58 105.26h-51.25L777.16 6.44h54.41l44.15 132.47 41-99.75L904.1 6.44h54.41l48.88 132.47 38.64-132.47h49.28l-60.72 197.12z"></path></svg>